<?xml version="1.0" encoding="UTF-8"?>
<svg xmlns="http://www.w3.org/2000/svg" xmlns:xlink="http://www.w3.org/1999/xlink" width="2560pt" height="1440pt" viewBox="0 0 2560 1440" version="1.1">
<g id="surface2">
<path style="fill:none;stroke-width:2;stroke-linecap:butt;stroke-linejoin:miter;stroke:rgb(0%,0%,0%);stroke-opacity:1;stroke-miterlimit:10;" d="M -14.003906 87.855469 L 43.710938 793.425781 L 1303.1875 672.867188 L 1245.472656 -32.707031 Z M -14.003906 87.855469 "/>
<path style="fill:none;stroke-width:2;stroke-linecap:butt;stroke-linejoin:miter;stroke:rgb(0%,0%,0%);stroke-opacity:1;stroke-miterlimit:10;" d="M -62.222656 181.285156 L 75.265625 875.234375 L 1333.398438 611.515625 L 1195.910156 -82.433594 Z M -62.222656 181.285156 "/>
<path style="fill:none;stroke-width:2;stroke-linecap:butt;stroke-linejoin:miter;stroke:rgb(0%,0%,0%);stroke-opacity:1;stroke-miterlimit:10;" d="M -105.347656 275.289062 L 93.199219 952.378906 L 1347.339844 578.722656 L 1148.796875 -98.367188 Z M -105.347656 275.289062 "/>
<path style="fill:none;stroke-width:2;stroke-linecap:butt;stroke-linejoin:miter;stroke:rgb(0%,0%,0%);stroke-opacity:1;stroke-miterlimit:10;" d="M -136.417969 307.546875 L 91.910156 984.507812 L 1355.050781 568.214844 L 1126.722656 -108.746094 Z M -136.417969 307.546875 "/>
<path style="fill:none;stroke-width:2;stroke-linecap:butt;stroke-linejoin:miter;stroke:rgb(0%,0%,0%);stroke-opacity:1;stroke-miterlimit:10;" d="M -139.917969 255.980469 L 66.835938 947.585938 L 1348.128906 580.023438 L 1141.375 -111.582031 Z M -139.917969 255.980469 "/>
<path style="fill:none;stroke-width:2;stroke-linecap:butt;stroke-linejoin:miter;stroke:rgb(0%,0%,0%);stroke-opacity:1;stroke-miterlimit:10;" d="M -106.273438 157.632812 L 28 866.746094 L 1326.066406 628.039062 L 1191.789062 -81.074219 Z M -106.273438 157.632812 "/>
<path style="fill:none;stroke-width:2;stroke-linecap:butt;stroke-linejoin:miter;stroke:rgb(0%,0%,0%);stroke-opacity:1;stroke-miterlimit:10;" d="M -42.390625 47.699219 L 10.542969 766.976562 L 1302.144531 678.03125 L 1249.210938 -41.242188 Z M -42.390625 47.699219 "/>
<path style="fill:none;stroke-width:2;stroke-linecap:butt;stroke-linejoin:miter;stroke:rgb(0%,0%,0%);stroke-opacity:1;stroke-miterlimit:10;" d="M 14.363281 -30.226562 L 17.996094 692.679688 L 1292.828125 697.847656 L 1289.195312 -25.058594 Z M 14.363281 -30.226562 "/>
<path style="fill:none;stroke-width:2;stroke-linecap:butt;stroke-linejoin:miter;stroke:rgb(0%,0%,0%);stroke-opacity:1;stroke-miterlimit:10;" d="M 9.644531 -64.914062 L 21.28125 668.902344 L 1310.332031 679.246094 L 1298.695312 -54.570312 Z M 9.644531 -64.914062 "/>
<path style="fill:none;stroke-width:2;stroke-linecap:butt;stroke-linejoin:miter;stroke:rgb(0%,0%,0%);stroke-opacity:1;stroke-miterlimit:10;" d="M -41.074219 -41.050781 L 17.777344 700.742188 L 1330.066406 638.746094 L 1271.21875 -103.050781 Z M -41.074219 -41.050781 "/>
<path style="fill:none;stroke-width:2;stroke-linecap:butt;stroke-linejoin:miter;stroke:rgb(0%,0%,0%);stroke-opacity:1;stroke-miterlimit:10;" d="M -128.785156 11.421875 L -22.496094 762 L 1336.449219 624.8125 L 1230.160156 -125.765625 Z M -128.785156 11.421875 "/>
<path style="fill:none;stroke-width:2;stroke-linecap:butt;stroke-linejoin:miter;stroke:rgb(0%,0%,0%);stroke-opacity:1;stroke-miterlimit:10;" d="M -203.875 42.265625 L -88.148438 805.480469 L 1328.578125 659.644531 L 1212.847656 -103.570312 Z M -203.875 42.265625 "/>
<path style="fill:none;stroke-width:2;stroke-linecap:butt;stroke-linejoin:miter;stroke:rgb(0%,0%,0%);stroke-opacity:1;stroke-miterlimit:10;" d="M -212.398438 15.71875 L -136.957031 785.523438 L 1304.507812 711.304688 L 1229.066406 -58.503906 Z M -212.398438 15.71875 "/>
<path style="fill:none;stroke-width:2;stroke-linecap:butt;stroke-linejoin:miter;stroke:rgb(0%,0%,0%);stroke-opacity:1;stroke-miterlimit:10;" d="M -174.417969 -75.738281 L -167.824219 699.195312 L 1277.546875 752.582031 L 1270.953125 -22.351562 Z M -174.417969 -75.738281 "/>
<path style="fill:none;stroke-width:2;stroke-linecap:butt;stroke-linejoin:miter;stroke:rgb(0%,0%,0%);stroke-opacity:1;stroke-miterlimit:10;" d="M -84.246094 -186.320312 L -150.898438 582.753906 L 1260.617188 772.867188 L 1327.269531 3.792969 Z M -84.246094 -186.320312 "/>
<path style="fill:none;stroke-width:2;stroke-linecap:butt;stroke-linejoin:miter;stroke:rgb(0%,0%,0%);stroke-opacity:1;stroke-miterlimit:10;" d="M 21.523438 -276.519531 L -94.179688 482.539062 L 1264.429688 776.007812 L 1380.128906 16.949219 Z M 21.523438 -276.519531 "/>
<path style="fill:none;stroke-width:2;stroke-linecap:butt;stroke-linejoin:miter;stroke:rgb(0%,0%,0%);stroke-opacity:1;stroke-miterlimit:10;" d="M 95.722656 -314.894531 L -27.242188 437.699219 L 1286.996094 756.382812 L 1409.960938 3.789062 Z M 95.722656 -314.894531 "/>
<path style="fill:none;stroke-width:2;stroke-linecap:butt;stroke-linejoin:miter;stroke:rgb(0%,0%,0%);stroke-opacity:1;stroke-miterlimit:10;" d="M 94.65625 -301.15625 L 6.597656 456.582031 L 1318.171875 715.738281 L 1406.230469 -42 Z M 94.65625 -301.15625 "/>
<path style="fill:none;stroke-width:2;stroke-linecap:butt;stroke-linejoin:miter;stroke:rgb(0%,0%,0%);stroke-opacity:1;stroke-miterlimit:10;" d="M 23.179688 -235.894531 L 1.136719 529.65625 L 1335.996094 661.574219 L 1358.035156 -103.976562 Z M 23.179688 -235.894531 "/>
<path style="fill:none;stroke-width:2;stroke-linecap:butt;stroke-linejoin:miter;stroke:rgb(0%,0%,0%);stroke-opacity:1;stroke-miterlimit:10;" d="M -83.367188 -137.835938 L -37.269531 631.917969 L 1336.390625 631.917969 L 1290.292969 -137.835938 Z M -83.367188 -137.835938 "/>
<path style="fill:none;stroke-width:2;stroke-linecap:butt;stroke-linejoin:miter;stroke:rgb(0%,0%,0%);stroke-opacity:1;stroke-miterlimit:10;" d="M -166.460938 -66.324219 L -89.472656 707.199219 L 1327.390625 647.242188 L 1250.402344 -126.28125 Z M -166.460938 -66.324219 "/>
<path style="fill:none;stroke-width:2;stroke-linecap:butt;stroke-linejoin:miter;stroke:rgb(0%,0%,0%);stroke-opacity:1;stroke-miterlimit:10;" d="M -171.34375 -52.949219 L -116.351562 716.175781 L 1305.722656 686.195312 L 1250.734375 -82.929688 Z M -171.34375 -52.949219 "/>
<path style="fill:none;stroke-width:2;stroke-linecap:butt;stroke-linejoin:miter;stroke:rgb(0%,0%,0%);stroke-opacity:1;stroke-miterlimit:10;" d="M -116.960938 -93.398438 L -113.304688 666.84375 L 1283.769531 720.179688 L 1280.113281 -40.066406 Z M -116.960938 -93.398438 "/>
<path style="fill:none;stroke-width:2;stroke-linecap:butt;stroke-linejoin:miter;stroke:rgb(0%,0%,0%);stroke-opacity:1;stroke-miterlimit:10;" d="M -21.589844 -181.675781 L -58.324219 572.855469 L 1290.898438 708.691406 L 1327.632812 -45.839844 Z M -21.589844 -181.675781 "/>
<path style="fill:none;stroke-width:2;stroke-linecap:butt;stroke-linejoin:miter;stroke:rgb(0%,0%,0%);stroke-opacity:1;stroke-miterlimit:10;" d="M 83.140625 -269.417969 L 17.011719 481.046875 L 1314.183594 693.71875 L 1380.316406 -56.746094 Z M 83.140625 -269.417969 "/>
<path style="fill:none;stroke-width:2;stroke-linecap:butt;stroke-linejoin:miter;stroke:rgb(0%,0%,0%);stroke-opacity:1;stroke-miterlimit:10;" d="M 164.796875 -326.390625 L 61.082031 416.15625 L 1318.367188 710.101562 L 1422.082031 -32.445312 Z M 164.796875 -326.390625 "/>
<path style="fill:none;stroke-width:2;stroke-linecap:butt;stroke-linejoin:miter;stroke:rgb(0%,0%,0%);stroke-opacity:1;stroke-miterlimit:10;" d="M 206.878906 -325.140625 L 62.878906 399.382812 L 1289.265625 750.546875 L 1433.265625 26.023438 Z M 206.878906 -325.140625 "/>
<path style="fill:none;stroke-width:2;stroke-linecap:butt;stroke-linejoin:miter;stroke:rgb(0%,0%,0%);stroke-opacity:1;stroke-miterlimit:10;" d="M 178.558594 -267.359375 L 37.558594 448.140625 L 1264.226562 766.804688 L 1405.226562 51.304688 Z M 178.558594 -267.359375 "/>
<path style="fill:none;stroke-width:2;stroke-linecap:butt;stroke-linejoin:miter;stroke:rgb(0%,0%,0%);stroke-opacity:1;stroke-miterlimit:10;" d="M 58.972656 -157.433594 L 10.628906 571.492188 L 1289.304688 709.011719 L 1337.652344 -19.914062 Z M 58.972656 -157.433594 "/>
<path style="fill:none;stroke-width:2;stroke-linecap:butt;stroke-linejoin:miter;stroke:rgb(0%,0%,0%);stroke-opacity:1;stroke-miterlimit:10;" d="M -98.277344 -8.898438 L 22.839844 732.648438 L 1356.996094 584.703125 L 1235.882812 -156.84375 Z M -98.277344 -8.898438 "/>
<path style="fill:none;stroke-width:2;stroke-linecap:butt;stroke-linejoin:miter;stroke:rgb(0%,0%,0%);stroke-opacity:1;stroke-miterlimit:10;" d="M -172.210938 121.796875 L 90.078125 845.511719 L 1396.5 461.117188 L 1134.207031 -262.597656 Z M -172.210938 121.796875 "/>
<path style="fill:none;stroke-width:2;stroke-linecap:butt;stroke-linejoin:miter;stroke:rgb(0%,0%,0%);stroke-opacity:1;stroke-miterlimit:10;" d="M -138.246094 150.859375 L 136.109375 853.804688 L 1393.703125 433.289062 L 1119.34375 -269.65625 Z M -138.246094 150.859375 "/>
<path style="fill:none;stroke-width:2;stroke-linecap:butt;stroke-linejoin:miter;stroke:rgb(0%,0%,0%);stroke-opacity:1;stroke-miterlimit:10;" d="M -47.140625 78.839844 L 148.277344 782.496094 L 1383.367188 482.640625 L 1187.949219 -221.015625 Z M -47.140625 78.839844 "/>
<path style="fill:none;stroke-width:2;stroke-linecap:butt;stroke-linejoin:miter;stroke:rgb(0%,0%,0%);stroke-opacity:1;stroke-miterlimit:10;" d="M 49.691406 -18.773438 L 170.566406 689.964844 L 1377.160156 520.457031 L 1256.28125 -188.28125 Z M 49.691406 -18.773438 "/>
<path style="fill:none;stroke-width:2;stroke-linecap:butt;stroke-linejoin:miter;stroke:rgb(0%,0%,0%);stroke-opacity:1;stroke-miterlimit:10;" d="M 73.6875 -92.855469 L 171.25 629.414062 L 1386.710938 525.882812 L 1289.148438 -196.386719 Z M 73.6875 -92.855469 "/>
<path style="fill:none;stroke-width:2;stroke-linecap:butt;stroke-linejoin:miter;stroke:rgb(0%,0%,0%);stroke-opacity:1;stroke-miterlimit:10;" d="M 40.585938 -138.390625 L 147.675781 602.875 L 1403.371094 512.410156 L 1296.28125 -228.855469 Z M 40.585938 -138.390625 "/>
<path style="fill:none;stroke-width:2;stroke-linecap:butt;stroke-linejoin:miter;stroke:rgb(0%,0%,0%);stroke-opacity:1;stroke-miterlimit:10;" d="M 0.96875 -168.6875 L 99.910156 587.085938 L 1401.558594 526.195312 L 1302.617188 -229.574219 Z M 0.96875 -168.6875 "/>
<path style="fill:none;stroke-width:2;stroke-linecap:butt;stroke-linejoin:miter;stroke:rgb(0%,0%,0%);stroke-opacity:1;stroke-miterlimit:10;" d="M -11.28125 -191.167969 L 32.195312 569.253906 L 1371.855469 601.796875 L 1328.378906 -158.628906 Z M -11.28125 -191.167969 "/>
<path style="fill:none;stroke-width:2;stroke-linecap:butt;stroke-linejoin:miter;stroke:rgb(0%,0%,0%);stroke-opacity:1;stroke-miterlimit:10;" d="M 23.375 -210.09375 L -1.820312 538.15625 L 1328.402344 675.25 L 1353.597656 -73 Z M 23.375 -210.09375 "/>
<path style="fill:none;stroke-width:2;stroke-linecap:butt;stroke-linejoin:miter;stroke:rgb(0%,0%,0%);stroke-opacity:1;stroke-miterlimit:10;" d="M 55.152344 -211.617188 L 7.765625 527.492188 L 1319.019531 695.984375 L 1366.40625 -43.125 Z M 55.152344 -211.617188 "/>
<path style="fill:none;stroke-width:2;stroke-linecap:butt;stroke-linejoin:miter;stroke:rgb(0%,0%,0%);stroke-opacity:1;stroke-miterlimit:10;" d="M 27.175781 -187.558594 L 24.125 558.375 L 1344.800781 656.003906 L 1347.851562 -89.929688 Z M 27.175781 -187.558594 "/>
<path style="fill:none;stroke-width:2;stroke-linecap:butt;stroke-linejoin:miter;stroke:rgb(0%,0%,0%);stroke-opacity:1;stroke-miterlimit:10;" d="M -19.054688 -156.230469 L 59.257812 599.503906 L 1385.214844 567.066406 L 1306.902344 -188.667969 Z M -19.054688 -156.230469 "/>
<path style="fill:none;stroke-width:2;stroke-linecap:butt;stroke-linejoin:miter;stroke:rgb(0%,0%,0%);stroke-opacity:1;stroke-miterlimit:10;" d="M -53.566406 -139.550781 L 79.347656 621.460938 L 1409.304688 506.695312 L 1276.390625 -254.320312 Z M -53.566406 -139.550781 "/>
<path style="fill:none;stroke-width:2;stroke-linecap:butt;stroke-linejoin:miter;stroke:rgb(0%,0%,0%);stroke-opacity:1;stroke-miterlimit:10;" d="M -65.398438 -181.847656 L 49.894531 592.363281 L 1411.335938 523.136719 L 1296.042969 -251.074219 Z M -65.398438 -181.847656 "/>
<path style="fill:none;stroke-width:2;stroke-linecap:butt;stroke-linejoin:miter;stroke:rgb(0%,0%,0%);stroke-opacity:1;stroke-miterlimit:10;" d="M -19.359375 -277.476562 L 0.683594 501.878906 L 1384.835938 610.144531 L 1364.792969 -169.210938 Z M -19.359375 -277.476562 "/>
<path style="fill:none;stroke-width:2;stroke-linecap:butt;stroke-linejoin:miter;stroke:rgb(0%,0%,0%);stroke-opacity:1;stroke-miterlimit:10;" d="M 66.914062 -364.019531 L -36.496094 395.632812 L 1327.824219 717.707031 L 1431.234375 -41.945312 Z M 66.914062 -364.019531 "/>
<path style="fill:none;stroke-width:2;stroke-linecap:butt;stroke-linejoin:miter;stroke:rgb(0%,0%,0%);stroke-opacity:1;stroke-miterlimit:10;" d="M 126.402344 -415.765625 L -52.621094 323.777344 L 1287.140625 779.628906 L 1466.164062 40.085938 Z M 126.402344 -415.765625 "/>
<path style="fill:none;stroke-width:2;stroke-linecap:butt;stroke-linejoin:miter;stroke:rgb(0%,0%,0%);stroke-opacity:1;stroke-miterlimit:10;" d="M 125.898438 -441.4375 L -49.789062 306.011719 L 1305.503906 770.324219 L 1481.191406 22.875 Z M 125.898438 -441.4375 "/>
<path style="fill:none;stroke-width:2;stroke-linecap:butt;stroke-linejoin:miter;stroke:rgb(0%,0%,0%);stroke-opacity:1;stroke-miterlimit:10;" d="M 89.738281 -445.617188 L -35.753906 324.582031 L 1351.609375 719.175781 L 1477.101562 -51.019531 Z M 89.738281 -445.617188 "/>
<path style="fill:none;stroke-width:2;stroke-linecap:butt;stroke-linejoin:miter;stroke:rgb(0%,0%,0%);stroke-opacity:1;stroke-miterlimit:10;" d="M 59.140625 -428.535156 L -34.09375 351.792969 L 1369.867188 690.246094 L 1463.101562 -90.082031 Z M 59.140625 -428.535156 "/>
<path style="fill:none;stroke-width:2;stroke-linecap:butt;stroke-linejoin:miter;stroke:rgb(0%,0%,0%);stroke-opacity:1;stroke-miterlimit:10;" d="M 52.699219 -389.890625 L -43.246094 381.59375 L 1349.082031 708.875 L 1445.03125 -62.609375 Z M 52.699219 -389.890625 "/>
<path style="fill:none;stroke-width:2;stroke-linecap:butt;stroke-linejoin:miter;stroke:rgb(0%,0%,0%);stroke-opacity:1;stroke-miterlimit:10;" d="M 50.066406 -345.476562 L -47.023438 416.46875 L 1329.632812 725.765625 L 1426.722656 -36.175781 Z M 50.066406 -345.476562 "/>
<path style="fill:none;stroke-width:2;stroke-linecap:butt;stroke-linejoin:miter;stroke:rgb(0%,0%,0%);stroke-opacity:1;stroke-miterlimit:10;" d="M 13.941406 -283.636719 L -38.644531 480.445312 L 1340.34375 700.425781 L 1392.933594 -63.65625 Z M 13.941406 -283.636719 "/>
<path style="fill:none;stroke-width:2;stroke-linecap:butt;stroke-linejoin:miter;stroke:rgb(0%,0%,0%);stroke-opacity:1;stroke-miterlimit:10;" d="M -28.839844 -229.722656 L 11.203125 544.953125 L 1388.402344 612.03125 L 1348.359375 -162.640625 Z M -28.839844 -229.722656 "/>
<path style="fill:none;stroke-width:2;stroke-linecap:butt;stroke-linejoin:miter;stroke:rgb(0%,0%,0%);stroke-opacity:1;stroke-miterlimit:10;" d="M -54.761719 -203.472656 L 59.609375 575.632812 L 1424.214844 525.140625 L 1309.84375 -253.960938 Z M -54.761719 -203.472656 "/>
<path style="fill:none;stroke-width:2;stroke-linecap:butt;stroke-linejoin:miter;stroke:rgb(0%,0%,0%);stroke-opacity:1;stroke-miterlimit:10;" d="M -27.328125 -205.480469 L 84.738281 566.71875 L 1423.417969 516.226562 L 1311.351562 -255.96875 Z M -27.328125 -205.480469 "/>
<path style="fill:none;stroke-width:2;stroke-linecap:butt;stroke-linejoin:miter;stroke:rgb(0%,0%,0%);stroke-opacity:1;stroke-miterlimit:10;" d="M 28.800781 -215.035156 L 89.570312 544.964844 L 1403.757812 568.210938 L 1342.992188 -191.789062 Z M 28.800781 -215.035156 "/>
<path style="fill:none;stroke-width:2;stroke-linecap:butt;stroke-linejoin:miter;stroke:rgb(0%,0%,0%);stroke-opacity:1;stroke-miterlimit:10;" d="M 55.347656 -207.878906 L 84.546875 541.320312 L 1383.671875 606.890625 L 1354.472656 -142.308594 Z M 55.347656 -207.878906 "/>
<path style="fill:none;stroke-width:2;stroke-linecap:butt;stroke-linejoin:miter;stroke:rgb(0%,0%,0%);stroke-opacity:1;stroke-miterlimit:10;" d="M 50.3125 -182.335938 L 106.289062 565.265625 L 1393.105469 581.625 L 1337.128906 -165.980469 Z M 50.3125 -182.335938 "/>
<path style="fill:none;stroke-width:2;stroke-linecap:butt;stroke-linejoin:miter;stroke:rgb(0%,0%,0%);stroke-opacity:1;stroke-miterlimit:10;" d="M 12.476562 -143.558594 L 131.585938 606.21875 L 1417.015625 516.632812 L 1297.90625 -233.144531 Z M 12.476562 -143.558594 "/>
<path style="fill:none;stroke-width:2;stroke-linecap:butt;stroke-linejoin:miter;stroke:rgb(0%,0%,0%);stroke-opacity:1;stroke-miterlimit:10;" d="M -27.492188 -83.5625 L 132.003906 659.980469 L 1417.402344 488.503906 L 1257.910156 -255.039062 Z M -27.492188 -83.5625 "/>
<path style="fill:none;stroke-width:2;stroke-linecap:butt;stroke-linejoin:miter;stroke:rgb(0%,0%,0%);stroke-opacity:1;stroke-miterlimit:10;" d="M -31.371094 -16.222656 L 105.046875 712.875 L 1391.785156 547.148438 L 1255.363281 -181.949219 Z M -31.371094 -16.222656 "/>
<path style="fill:none;stroke-width:2;stroke-linecap:butt;stroke-linejoin:miter;stroke:rgb(0%,0%,0%);stroke-opacity:1;stroke-miterlimit:10;" d="M -8.300781 9.253906 L 44.75 723.191406 L 1339.574219 665.253906 L 1286.519531 -48.683594 Z M -8.300781 9.253906 "/>
<path style="fill:none;stroke-width:2;stroke-linecap:butt;stroke-linejoin:miter;stroke:rgb(0%,0%,0%);stroke-opacity:1;stroke-miterlimit:10;" d="M 32.066406 12.429688 L -42.886719 697.605469 L 1239.804688 818.742188 L 1314.757812 133.566406 Z M 32.066406 12.429688 "/>
<path style="fill:none;stroke-width:2;stroke-linecap:butt;stroke-linejoin:miter;stroke:rgb(0%,0%,0%);stroke-opacity:1;stroke-miterlimit:10;" d="M 66.769531 -10.71875 L -134.320312 636.980469 L 1113.546875 944.929688 L 1314.632812 297.230469 Z M 66.769531 -10.71875 "/>
<path style="fill:none;stroke-width:2;stroke-linecap:butt;stroke-linejoin:miter;stroke:rgb(0%,0%,0%);stroke-opacity:1;stroke-miterlimit:10;" d="M 48.992188 -7.765625 L -239.308594 605.816406 L 996.414062 1043.21875 L 1284.714844 429.632812 Z M 48.992188 -7.765625 "/>
<path style="fill:none;stroke-width:2;stroke-linecap:butt;stroke-linejoin:miter;stroke:rgb(0%,0%,0%);stroke-opacity:1;stroke-miterlimit:10;" d="M -8.023438 -0.90625 L -301.359375 620.808594 L 978.640625 1073.210938 L 1271.976562 451.496094 Z M -8.023438 -0.90625 "/>
<path style="fill:none;stroke-width:2;stroke-linecap:butt;stroke-linejoin:miter;stroke:rgb(0%,0%,0%);stroke-opacity:1;stroke-miterlimit:10;" d="M -128.695312 40.355469 L -353.058594 707.976562 L 1045.074219 1070.714844 L 1269.4375 403.09375 Z M -128.695312 40.355469 "/>
<path style="fill:none;stroke-width:2;stroke-linecap:butt;stroke-linejoin:miter;stroke:rgb(0%,0%,0%);stroke-opacity:1;stroke-miterlimit:10;" d="M -286.316406 72.074219 L -388.019531 815.480469 L 1163.191406 1029.292969 L 1264.894531 285.882812 Z M -286.316406 72.074219 "/>
<path style="fill:none;stroke-width:2;stroke-linecap:butt;stroke-linejoin:miter;stroke:rgb(0%,0%,0%);stroke-opacity:1;stroke-miterlimit:10;" d="M -376.625 88.472656 L -378.269531 879.980469 L 1246.570312 966.191406 L 1248.214844 174.683594 Z M -376.625 88.472656 "/>
<path style="fill:none;stroke-width:2;stroke-linecap:butt;stroke-linejoin:miter;stroke:rgb(0%,0%,0%);stroke-opacity:1;stroke-miterlimit:10;" d="M -351.925781 63.132812 L -362.539062 850.070312 L 1243.992188 948.753906 L 1254.605469 161.816406 Z M -351.925781 63.132812 "/>
<path style="fill:none;stroke-width:2;stroke-linecap:butt;stroke-linejoin:miter;stroke:rgb(0%,0%,0%);stroke-opacity:1;stroke-miterlimit:10;" d="M -250.265625 -4.128906 L -368.40625 744.605469 L 1164.191406 995.78125 L 1282.328125 247.042969 Z M -250.265625 -4.128906 "/>
<path style="fill:none;stroke-width:2;stroke-linecap:butt;stroke-linejoin:miter;stroke:rgb(0%,0%,0%);stroke-opacity:1;stroke-miterlimit:10;" d="M -105.835938 -59.972656 L -337.042969 627.441406 L 1065.714844 1034.335938 L 1296.921875 346.921875 Z M -105.835938 -59.972656 "/>
<path style="fill:none;stroke-width:2;stroke-linecap:butt;stroke-linejoin:miter;stroke:rgb(0%,0%,0%);stroke-opacity:1;stroke-miterlimit:10;" d="M -27.730469 -87.484375 L -315.425781 566.714844 L 1013.542969 1052.324219 L 1301.238281 398.125 Z M -27.730469 -87.484375 "/>
<path style="fill:none;stroke-width:2;stroke-linecap:butt;stroke-linejoin:miter;stroke:rgb(0%,0%,0%);stroke-opacity:1;stroke-miterlimit:10;" d="M -41.238281 -112.925781 L -322.042969 554.277344 L 1030.050781 1042.609375 L 1310.855469 375.40625 Z M -41.238281 -112.925781 "/>
<path style="fill:none;stroke-width:2;stroke-linecap:butt;stroke-linejoin:miter;stroke:rgb(0%,0%,0%);stroke-opacity:1;stroke-miterlimit:10;" d="M -100.707031 -114.046875 L -325.269531 590.519531 L 1091.921875 1006.210938 L 1316.488281 301.644531 Z M -100.707031 -114.046875 "/>
<path style="fill:none;stroke-width:2;stroke-linecap:butt;stroke-linejoin:miter;stroke:rgb(0%,0%,0%);stroke-opacity:1;stroke-miterlimit:10;" d="M -177.148438 -86.65625 L -328.808594 655.234375 L 1161.050781 967.9375 L 1312.710938 226.046875 Z M -177.148438 -86.65625 "/>
<path style="fill:none;stroke-width:2;stroke-linecap:butt;stroke-linejoin:miter;stroke:rgb(0%,0%,0%);stroke-opacity:1;stroke-miterlimit:10;" d="M -264.722656 -77.644531 L -369.507812 699.511719 L 1198.386719 957.769531 L 1303.171875 180.613281 Z M -264.722656 -77.644531 "/>
<path style="fill:none;stroke-width:2;stroke-linecap:butt;stroke-linejoin:miter;stroke:rgb(0%,0%,0%);stroke-opacity:1;stroke-miterlimit:10;" d="M -280.847656 -71.925781 L -408.28125 700.640625 L 1169.0625 992.324219 L 1296.496094 219.757812 Z M -280.847656 -71.925781 "/>
<path style="fill:none;stroke-width:2;stroke-linecap:butt;stroke-linejoin:miter;stroke:rgb(0%,0%,0%);stroke-opacity:1;stroke-miterlimit:10;" d="M -177.121094 -122.199219 L -386.40625 609.515625 L 1103.222656 1019.058594 L 1312.507812 287.347656 Z M -177.121094 -122.199219 "/>
<path style="fill:none;stroke-width:2;stroke-linecap:butt;stroke-linejoin:miter;stroke:rgb(0%,0%,0%);stroke-opacity:1;stroke-miterlimit:10;" d="M -45.414062 -198.25 L -370.058594 470.808594 L 995.09375 1054.71875 L 1319.738281 385.65625 Z M -45.414062 -198.25 "/>
<path style="fill:none;stroke-width:2;stroke-linecap:butt;stroke-linejoin:miter;stroke:rgb(0%,0%,0%);stroke-opacity:1;stroke-miterlimit:10;" d="M 68.441406 -253.417969 L -357.015625 346.832031 L 875.382812 1086.003906 L 1300.835938 485.757812 Z M 68.441406 -253.417969 "/>
<path style="fill:none;stroke-width:2;stroke-linecap:butt;stroke-linejoin:miter;stroke:rgb(0%,0%,0%);stroke-opacity:1;stroke-miterlimit:10;" d="M 153.890625 -290.824219 L -316.820312 272.273438 L 830.226562 1088.238281 L 1300.9375 525.144531 Z M 153.890625 -290.824219 "/>
<path style="fill:none;stroke-width:2;stroke-linecap:butt;stroke-linejoin:miter;stroke:rgb(0%,0%,0%);stroke-opacity:1;stroke-miterlimit:10;" d="M 145.574219 -328.035156 L -304.609375 262.921875 L 884.148438 1067.15625 L 1334.328125 476.199219 Z M 145.574219 -328.035156 "/>
<path style="fill:none;stroke-width:2;stroke-linecap:butt;stroke-linejoin:miter;stroke:rgb(0%,0%,0%);stroke-opacity:1;stroke-miterlimit:10;" d="M 70.214844 -292.828125 L -284.601562 362.726562 L 1007.25 1017.210938 L 1362.066406 361.65625 Z M 70.214844 -292.828125 "/>
<path style="fill:none;stroke-width:2;stroke-linecap:butt;stroke-linejoin:miter;stroke:rgb(0%,0%,0%);stroke-opacity:1;stroke-miterlimit:10;" d="M -8.183594 -208.554688 L -207.808594 512.941406 L 1175.867188 913.023438 L 1375.492188 191.527344 Z M -8.183594 -208.554688 "/>
<path style="fill:none;stroke-width:2;stroke-linecap:butt;stroke-linejoin:miter;stroke:rgb(0%,0%,0%);stroke-opacity:1;stroke-miterlimit:10;" d="M -90.09375 -90.621094 L -116.484375 667.828125 L 1313.632812 780.414062 L 1340.019531 21.964844 Z M -90.09375 -90.621094 "/>
<path style="fill:none;stroke-width:2;stroke-linecap:butt;stroke-linejoin:miter;stroke:rgb(0%,0%,0%);stroke-opacity:1;stroke-miterlimit:10;" d="M -123.136719 70.527344 L -21.804688 814.910156 L 1380.101562 683.523438 L 1278.769531 -60.855469 Z M -123.136719 70.527344 "/>
<path style="fill:none;stroke-width:2;stroke-linecap:butt;stroke-linejoin:miter;stroke:rgb(0%,0%,0%);stroke-opacity:1;stroke-miterlimit:10;" d="M -122.171875 167.679688 L 31.183594 892.28125 L 1403.875 651.003906 L 1250.523438 -73.597656 Z M -122.171875 167.679688 "/>
<path style="fill:none;stroke-width:2;stroke-linecap:butt;stroke-linejoin:miter;stroke:rgb(0%,0%,0%);stroke-opacity:1;stroke-miterlimit:10;" d="M -141.910156 169.398438 L -53.542969 897.082031 L 1367.160156 753.648438 L 1278.792969 25.960938 Z M -141.910156 169.398438 "/>
<path style="fill:none;stroke-width:2;stroke-linecap:butt;stroke-linejoin:miter;stroke:rgb(0%,0%,0%);stroke-opacity:1;stroke-miterlimit:10;" d="M -89.6875 96.71875 L -181.199219 801.589844 L 1231.910156 927.976562 L 1323.421875 223.105469 Z M -89.6875 96.71875 "/>
<path style="fill:none;stroke-width:2;stroke-linecap:butt;stroke-linejoin:miter;stroke:rgb(0%,0%,0%);stroke-opacity:1;stroke-miterlimit:10;" d="M 60.496094 -16.179688 L -248.90625 617.1875 L 1028.503906 1050.757812 L 1337.910156 417.390625 Z M 60.496094 -16.179688 "/>
<path style="fill:none;stroke-width:2;stroke-linecap:butt;stroke-linejoin:miter;stroke:rgb(0%,0%,0%);stroke-opacity:1;stroke-miterlimit:10;" d="M 199.664062 -126.625 L -266.796875 416.878906 L 820.207031 1107.929688 L 1286.667969 564.425781 Z M 199.664062 -126.625 "/>
<path style="fill:none;stroke-width:2;stroke-linecap:butt;stroke-linejoin:miter;stroke:rgb(0%,0%,0%);stroke-opacity:1;stroke-miterlimit:10;" d="M 287.085938 -170.539062 L -255.832031 306.484375 L 694.714844 1125.246094 L 1237.628906 648.222656 Z M 287.085938 -170.539062 "/>
<path style="fill:none;stroke-width:2;stroke-linecap:butt;stroke-linejoin:miter;stroke:rgb(0%,0%,0%);stroke-opacity:1;stroke-miterlimit:10;" d="M 307.671875 -206.644531 L -213.613281 293.546875 L 756.671875 1098.082031 L 1277.957031 597.894531 Z M 307.671875 -206.644531 "/>
<path style="fill:none;stroke-width:2;stroke-linecap:butt;stroke-linejoin:miter;stroke:rgb(0%,0%,0%);stroke-opacity:1;stroke-miterlimit:10;" d="M 202.160156 -191.671875 L -235.230469 390.132812 L 901.046875 1063.300781 L 1338.4375 481.496094 Z M 202.160156 -191.671875 "/>
<path style="fill:none;stroke-width:2;stroke-linecap:butt;stroke-linejoin:miter;stroke:rgb(0%,0%,0%);stroke-opacity:1;stroke-miterlimit:10;" d="M 91.96875 -85.144531 L -200.152344 574.441406 L 1091.21875 991.421875 L 1383.34375 331.835938 Z M 91.96875 -85.144531 "/>
<path style="fill:none;stroke-width:2;stroke-linecap:butt;stroke-linejoin:miter;stroke:rgb(0%,0%,0%);stroke-opacity:1;stroke-miterlimit:10;" d="M -43.378906 87.753906 L -183.957031 793.621094 L 1245.460938 939.078125 L 1386.042969 233.210938 Z M -43.378906 87.753906 "/>
<path style="fill:none;stroke-width:2;stroke-linecap:butt;stroke-linejoin:miter;stroke:rgb(0%,0%,0%);stroke-opacity:1;stroke-miterlimit:10;" d="M -195.105469 272.171875 L -201.421875 1004.015625 L 1370.507812 926.820312 L 1376.824219 194.980469 Z M -195.105469 272.171875 "/>
<path style="fill:none;stroke-width:2;stroke-linecap:butt;stroke-linejoin:miter;stroke:rgb(0%,0%,0%);stroke-opacity:1;stroke-miterlimit:10;" d="M -346.777344 392.476562 L -252.9375 1158.980469 L 1452.253906 953.765625 L 1358.414062 187.261719 Z M -346.777344 392.476562 "/>
<path style="fill:none;stroke-width:2;stroke-linecap:butt;stroke-linejoin:miter;stroke:rgb(0%,0%,0%);stroke-opacity:1;stroke-miterlimit:10;" d="M -485.304688 394.84375 L -381.351562 1210.277344 L 1457.605469 1034.558594 L 1353.652344 219.128906 Z M -485.304688 394.84375 "/>
<path style="fill:none;stroke-width:2;stroke-linecap:butt;stroke-linejoin:miter;stroke:rgb(0%,0%,0%);stroke-opacity:1;stroke-miterlimit:10;" d="M -544.054688 295.371094 L -527.957031 1139.890625 L 1381.5 1124.832031 L 1365.40625 280.3125 Z M -544.054688 295.371094 "/>
<path style="fill:none;stroke-width:2;stroke-linecap:butt;stroke-linejoin:miter;stroke:rgb(0%,0%,0%);stroke-opacity:1;stroke-miterlimit:10;" d="M -474.570312 147.414062 L -577.078125 976.429688 L 1269.882812 1141.3125 L 1372.390625 312.292969 Z M -474.570312 147.414062 "/>
<path style="fill:none;stroke-width:2;stroke-linecap:butt;stroke-linejoin:miter;stroke:rgb(0%,0%,0%);stroke-opacity:1;stroke-miterlimit:10;" d="M -381.769531 -1.972656 L -576.003906 808.515625 L 1186.597656 1120.539062 L 1380.832031 310.054688 Z M -381.769531 -1.972656 "/>
<path style="fill:none;stroke-width:2;stroke-linecap:butt;stroke-linejoin:miter;stroke:rgb(0%,0%,0%);stroke-opacity:1;stroke-miterlimit:10;" d="M -288.6875 -81.898438 L -546.101562 699.425781 L 1129.609375 1105.90625 L 1387.023438 324.578125 Z M -288.6875 -81.898438 "/>
<path style="fill:none;stroke-width:2;stroke-linecap:butt;stroke-linejoin:miter;stroke:rgb(0%,0%,0%);stroke-opacity:1;stroke-miterlimit:10;" d="M -181.632812 -93.78125 L -461.632812 653.625 L 1113.34375 1076.339844 L 1393.34375 328.933594 Z M -181.632812 -93.78125 "/>
<path style="fill:none;stroke-width:2;stroke-linecap:butt;stroke-linejoin:miter;stroke:rgb(0%,0%,0%);stroke-opacity:1;stroke-miterlimit:10;" d="M -170.855469 -65.789062 L -437.796875 676.457031 L 1128.261719 1067.96875 L 1395.203125 325.722656 Z M -170.855469 -65.789062 "/>
<path style="fill:none;stroke-width:2;stroke-linecap:butt;stroke-linejoin:miter;stroke:rgb(0%,0%,0%);stroke-opacity:1;stroke-miterlimit:10;" d="M -249.492188 9.234375 L -448.351562 779.519531 L 1193.300781 1062.609375 L 1392.15625 292.324219 Z M -249.492188 9.234375 "/>
<path style="fill:none;stroke-width:2;stroke-linecap:butt;stroke-linejoin:miter;stroke:rgb(0%,0%,0%);stroke-opacity:1;stroke-miterlimit:10;" d="M -374.976562 104.546875 L -447.925781 925.25 L 1314.1875 1026.746094 L 1387.140625 206.042969 Z M -374.976562 104.546875 "/>
<path style="fill:none;stroke-width:2;stroke-linecap:butt;stroke-linejoin:miter;stroke:rgb(0%,0%,0%);stroke-opacity:1;stroke-miterlimit:10;" d="M -506.460938 165.183594 L -466.234375 1034.601562 L 1404.875 990.816406 L 1364.644531 121.398438 Z M -506.460938 165.183594 "/>
<path style="fill:none;stroke-width:2;stroke-linecap:butt;stroke-linejoin:miter;stroke:rgb(0%,0%,0%);stroke-opacity:1;stroke-miterlimit:10;" d="M -496.085938 140.308594 L -467.480469 1009.867188 L 1395.128906 983.714844 L 1366.527344 114.15625 Z M -496.085938 140.308594 "/>
<path style="fill:none;stroke-width:2;stroke-linecap:butt;stroke-linejoin:miter;stroke:rgb(0%,0%,0%);stroke-opacity:1;stroke-miterlimit:10;" d="M -342.625 18.765625 L -442.796875 842.070312 L 1296.332031 999.289062 L 1396.507812 175.984375 Z M -342.625 18.765625 "/>
<path style="fill:none;stroke-width:2;stroke-linecap:butt;stroke-linejoin:miter;stroke:rgb(0%,0%,0%);stroke-opacity:1;stroke-miterlimit:10;" d="M -149.070312 -96.542969 L -387.328125 660.800781 L 1178.152344 1019.308594 L 1416.40625 261.964844 Z M -149.070312 -96.542969 "/>
<path style="fill:none;stroke-width:2;stroke-linecap:butt;stroke-linejoin:miter;stroke:rgb(0%,0%,0%);stroke-opacity:1;stroke-miterlimit:10;" d="M 3.902344 -151.933594 L -291.074219 558.621094 L 1132.296875 1000.355469 L 1427.273438 289.800781 Z M 3.902344 -151.933594 "/>
<path style="fill:none;stroke-width:2;stroke-linecap:butt;stroke-linejoin:miter;stroke:rgb(0%,0%,0%);stroke-opacity:1;stroke-miterlimit:10;" d="M 41.1875 -158.632812 L -224.113281 556.304688 L 1176.691406 953.414062 L 1441.992188 238.472656 Z M 41.1875 -158.632812 "/>
<path style="fill:none;stroke-width:2;stroke-linecap:butt;stroke-linejoin:miter;stroke:rgb(0%,0%,0%);stroke-opacity:1;stroke-miterlimit:10;" d="M -3.105469 -112.558594 L -179.640625 631.515625 L 1268.953125 888.292969 L 1445.488281 144.21875 Z M -3.105469 -112.558594 "/>
<path style="fill:none;stroke-width:2;stroke-linecap:butt;stroke-linejoin:miter;stroke:rgb(0%,0%,0%);stroke-opacity:1;stroke-miterlimit:10;" d="M -67.117188 -33.578125 L -147.691406 729.296875 L 1346.519531 825.230469 L 1427.09375 62.355469 Z M -67.117188 -33.578125 "/>
<path style="fill:none;stroke-width:2;stroke-linecap:butt;stroke-linejoin:miter;stroke:rgb(0%,0%,0%);stroke-opacity:1;stroke-miterlimit:10;" d="M -137.546875 33.730469 L -166.078125 809.289062 L 1379.53125 818.632812 L 1408.0625 43.074219 Z M -137.546875 33.730469 "/>
<path style="fill:none;stroke-width:2;stroke-linecap:butt;stroke-linejoin:miter;stroke:rgb(0%,0%,0%);stroke-opacity:1;stroke-miterlimit:10;" d="M -164.933594 61.1875 L -191.402344 838.667969 L 1374.984375 841.355469 L 1401.453125 63.878906 Z M -164.933594 61.1875 "/>
<path style="fill:none;stroke-width:2;stroke-linecap:butt;stroke-linejoin:miter;stroke:rgb(0%,0%,0%);stroke-opacity:1;stroke-miterlimit:10;" d="M -117.089844 40.085938 L -169.589844 805.085938 L 1354.410156 843.753906 L 1406.910156 78.753906 Z M -117.089844 40.085938 "/>
<path style="fill:none;stroke-width:2;stroke-linecap:butt;stroke-linejoin:miter;stroke:rgb(0%,0%,0%);stroke-opacity:1;stroke-miterlimit:10;" d="M -41.667969 -20.332031 L -126.113281 733.742188 L 1339.566406 828.558594 L 1424.011719 74.484375 Z M -41.667969 -20.332031 "/>
<path style="fill:none;stroke-width:2;stroke-linecap:butt;stroke-linejoin:miter;stroke:rgb(0%,0%,0%);stroke-opacity:1;stroke-miterlimit:10;" d="M 64.523438 -87.800781 L -54.132812 648.3125 L 1326.132812 803.269531 L 1444.789062 67.15625 Z M 64.523438 -87.800781 "/>
<path style="fill:none;stroke-width:2;stroke-linecap:butt;stroke-linejoin:miter;stroke:rgb(0%,0%,0%);stroke-opacity:1;stroke-miterlimit:10;" d="M 175.828125 -157.265625 L 21.335938 562.007812 L 1314.289062 791.316406 L 1468.785156 72.046875 Z M 175.828125 -157.265625 "/>
<path style="fill:none;stroke-width:2;stroke-linecap:butt;stroke-linejoin:miter;stroke:rgb(0%,0%,0%);stroke-opacity:1;stroke-miterlimit:10;" d="M 243.738281 -199.507812 L 33.769531 499.421875 L 1272.4375 824.910156 L 1482.40625 125.980469 Z M 243.738281 -199.507812 "/>
<path style="fill:none;stroke-width:2;stroke-linecap:butt;stroke-linejoin:miter;stroke:rgb(0%,0%,0%);stroke-opacity:1;stroke-miterlimit:10;" d="M 256.78125 -205.273438 L -4.046875 475.496094 L 1216.539062 875.898438 L 1477.367188 195.132812 Z M 256.78125 -205.273438 "/>
<path style="fill:none;stroke-width:2;stroke-linecap:butt;stroke-linejoin:miter;stroke:rgb(0%,0%,0%);stroke-opacity:1;stroke-miterlimit:10;" d="M 193.875 -178.027344 L -76.308594 505.460938 L 1186.816406 909.191406 L 1457 225.703125 Z M 193.875 -178.027344 "/>
<path style="fill:none;stroke-width:2;stroke-linecap:butt;stroke-linejoin:miter;stroke:rgb(0%,0%,0%);stroke-opacity:1;stroke-miterlimit:10;" d="M 45.78125 -116.804688 L -164.40625 606.175781 L 1230.875 906.960938 L 1441.0625 183.980469 Z M 45.78125 -116.804688 "/>
<path style="fill:none;stroke-width:2;stroke-linecap:butt;stroke-linejoin:miter;stroke:rgb(0%,0%,0%);stroke-opacity:1;stroke-miterlimit:10;" d="M -132.375 -24.96875 L -194.617188 755.734375 L 1351.765625 834.964844 L 1414.007812 54.261719 Z M -132.375 -24.96875 "/>
<path style="fill:none;stroke-width:2;stroke-linecap:butt;stroke-linejoin:miter;stroke:rgb(0%,0%,0%);stroke-opacity:1;stroke-miterlimit:10;" d="M -274.070312 83.460938 L -159.347656 897.617188 L 1473.707031 711.945312 L 1358.984375 -102.207031 Z M -274.070312 83.460938 "/>
<path style="fill:none;stroke-width:2;stroke-linecap:butt;stroke-linejoin:miter;stroke:rgb(0%,0%,0%);stroke-opacity:1;stroke-miterlimit:10;" d="M -331.984375 174.4375 L -103.222656 983.535156 L 1523.53125 619.65625 L 1294.769531 -189.441406 Z M -331.984375 174.4375 "/>
<path style="fill:none;stroke-width:2;stroke-linecap:butt;stroke-linejoin:miter;stroke:rgb(0%,0%,0%);stroke-opacity:1;stroke-miterlimit:10;" d="M -270.320312 201.164062 L -36.441406 982.628906 L 1523.117188 590.964844 L 1289.234375 -190.496094 Z M -270.320312 201.164062 "/>
<path style="fill:none;stroke-width:2;stroke-linecap:butt;stroke-linejoin:miter;stroke:rgb(0%,0%,0%);stroke-opacity:1;stroke-miterlimit:10;" d="M -150.734375 173.960938 L 21.785156 924.683594 L 1493.644531 599.78125 L 1321.125 -150.941406 Z M -150.734375 173.960938 "/>
<path style="fill:none;stroke-width:2;stroke-linecap:butt;stroke-linejoin:miter;stroke:rgb(0%,0%,0%);stroke-opacity:1;stroke-miterlimit:10;" d="M -56.066406 116.3125 L 60.164062 854.253906 L 1466.363281 607.40625 L 1350.132812 -130.535156 Z M -56.066406 116.3125 "/>
<path style="fill:none;stroke-width:2;stroke-linecap:butt;stroke-linejoin:miter;stroke:rgb(0%,0%,0%);stroke-opacity:1;stroke-miterlimit:10;" d="M -28.121094 56.34375 L 64.980469 798.84375 L 1460.84375 602.980469 L 1367.742188 -139.519531 Z M -28.121094 56.34375 "/>
<path style="fill:none;stroke-width:2;stroke-linecap:butt;stroke-linejoin:miter;stroke:rgb(0%,0%,0%);stroke-opacity:1;stroke-miterlimit:10;" d="M -89.027344 30.816406 L 5.257812 796.011719 L 1463.960938 621.464844 L 1369.675781 -143.726562 Z M -89.027344 30.816406 "/>
<path style="fill:none;stroke-width:2;stroke-linecap:butt;stroke-linejoin:miter;stroke:rgb(0%,0%,0%);stroke-opacity:1;stroke-miterlimit:10;" d="M -213.304688 30.070312 L -108.863281 832.355469 L 1465.113281 666.378906 L 1360.675781 -135.90625 Z M -213.304688 30.070312 "/>
<path style="fill:none;stroke-width:2;stroke-linecap:butt;stroke-linejoin:miter;stroke:rgb(0%,0%,0%);stroke-opacity:1;stroke-miterlimit:10;" d="M -335.320312 24.636719 L -232.808594 867.328125 L 1463.332031 728.132812 L 1360.820312 -114.554688 Z M -335.320312 24.636719 "/>
<path style="fill:none;stroke-width:2;stroke-linecap:butt;stroke-linejoin:miter;stroke:rgb(0%,0%,0%);stroke-opacity:1;stroke-miterlimit:10;" d="M -385.859375 9.085938 L -318.335938 869.832031 L 1438.953125 794.621094 L 1371.429688 -66.125 Z M -385.859375 9.085938 "/>
<path style="fill:none;stroke-width:2;stroke-linecap:butt;stroke-linejoin:miter;stroke:rgb(0%,0%,0%);stroke-opacity:1;stroke-miterlimit:10;" d="M -350.65625 -8.808594 L -337.738281 837.917969 L 1395.714844 839.351562 L 1382.796875 -7.375 Z M -350.65625 -8.808594 "/>
<path style="fill:none;stroke-width:2;stroke-linecap:butt;stroke-linejoin:miter;stroke:rgb(0%,0%,0%);stroke-opacity:1;stroke-miterlimit:10;" d="M -247.75 -11.773438 L -272.386719 798.824219 L 1370.707031 836.96875 L 1395.339844 26.375 Z M -247.75 -11.773438 "/>
<path style="fill:none;stroke-width:2;stroke-linecap:butt;stroke-linejoin:miter;stroke:rgb(0%,0%,0%);stroke-opacity:1;stroke-miterlimit:10;" d="M -160.097656 -1.097656 L -180.53125 781.785156 L 1377.546875 797.15625 L 1397.984375 14.273438 Z M -160.097656 -1.097656 "/>
<path style="fill:none;stroke-width:2;stroke-linecap:butt;stroke-linejoin:miter;stroke:rgb(0%,0%,0%);stroke-opacity:1;stroke-miterlimit:10;" d="M -99.183594 5.886719 L -71.039062 774.355469 L 1416.039062 707.644531 L 1387.894531 -60.824219 Z M -99.183594 5.886719 "/>
<path style="fill:none;stroke-width:2;stroke-linecap:butt;stroke-linejoin:miter;stroke:rgb(0%,0%,0%);stroke-opacity:1;stroke-miterlimit:10;" d="M -70.027344 9.28125 L 32.160156 770.625 L 1466.09375 594.503906 L 1363.902344 -166.839844 Z M -70.027344 9.28125 "/>
<path style="fill:none;stroke-width:2;stroke-linecap:butt;stroke-linejoin:miter;stroke:rgb(0%,0%,0%);stroke-opacity:1;stroke-miterlimit:10;" d="M -83.292969 16.066406 L 85.386719 779.015625 L 1504.214844 511.074219 L 1335.535156 -251.875 Z M -83.292969 16.066406 "/>
<path style="fill:none;stroke-width:2;stroke-linecap:butt;stroke-linejoin:miter;stroke:rgb(0%,0%,0%);stroke-opacity:1;stroke-miterlimit:10;" d="M -123.328125 33.003906 L 77.238281 801.578125 L 1516.019531 488.195312 L 1315.453125 -280.378906 Z M -123.328125 33.003906 "/>
<path style="fill:none;stroke-width:2;stroke-linecap:butt;stroke-linejoin:miter;stroke:rgb(0%,0%,0%);stroke-opacity:1;stroke-miterlimit:10;" d="M -163.378906 53.457031 L 22.328125 830.898438 L 1506.566406 539.925781 L 1320.863281 -237.515625 Z M -163.378906 53.457031 "/>
<path style="fill:none;stroke-width:2;stroke-linecap:butt;stroke-linejoin:miter;stroke:rgb(0%,0%,0%);stroke-opacity:1;stroke-miterlimit:10;" d="M -191.742188 46.550781 L -62.269531 836.023438 L 1478.785156 633.917969 L 1349.308594 -155.554688 Z M -191.742188 46.550781 "/>
<path style="fill:none;stroke-width:2;stroke-linecap:butt;stroke-linejoin:miter;stroke:rgb(0%,0%,0%);stroke-opacity:1;stroke-miterlimit:10;" d="M -181.511719 20.839844 L -135.085938 808.511719 L 1424.695312 730.175781 L 1378.269531 -57.496094 Z M -181.511719 20.839844 "/>
<path style="fill:none;stroke-width:2;stroke-linecap:butt;stroke-linejoin:miter;stroke:rgb(0%,0%,0%);stroke-opacity:1;stroke-miterlimit:10;" d="M -130.972656 0.675781 L -166.113281 768.3125 L 1363.78125 803.019531 L 1398.921875 35.382812 Z M -130.972656 0.675781 "/>
<path style="fill:none;stroke-width:2;stroke-linecap:butt;stroke-linejoin:miter;stroke:rgb(0%,0%,0%);stroke-opacity:1;stroke-miterlimit:10;" d="M -74.894531 -12.003906 L -163.925781 734.320312 L 1319.773438 841.675781 L 1408.804688 95.351562 Z M -74.894531 -12.003906 "/>
<path style="fill:none;stroke-width:2;stroke-linecap:butt;stroke-linejoin:miter;stroke:rgb(0%,0%,0%);stroke-opacity:1;stroke-miterlimit:10;" d="M -33.1875 -25.007812 L -138.6875 710.394531 L 1309.699219 840.445312 L 1415.195312 105.046875 Z M -33.1875 -25.007812 "/>
<path style="fill:none;stroke-width:2;stroke-linecap:butt;stroke-linejoin:miter;stroke:rgb(0%,0%,0%);stroke-opacity:1;stroke-miterlimit:10;" d="M -2.375 -28.792969 L -95.152344 701.175781 L 1322.523438 810.230469 L 1415.304688 80.261719 Z M -2.375 -28.792969 "/>
<path style="fill:none;stroke-width:2;stroke-linecap:butt;stroke-linejoin:miter;stroke:rgb(0%,0%,0%);stroke-opacity:1;stroke-miterlimit:10;" d="M 10.5 -14.953125 L -57.046875 713.488281 L 1345.765625 778.992188 L 1413.316406 50.546875 Z M 10.5 -14.953125 "/>
<path style="fill:none;stroke-width:2;stroke-linecap:butt;stroke-linejoin:miter;stroke:rgb(0%,0%,0%);stroke-opacity:1;stroke-miterlimit:10;" d="M -4.519531 8.585938 L -48.414062 738.597656 L 1363.007812 763.238281 L 1406.902344 33.230469 Z M -4.519531 8.585938 "/>
<path style="fill:none;stroke-width:2;stroke-linecap:butt;stroke-linejoin:miter;stroke:rgb(0%,0%,0%);stroke-opacity:1;stroke-miterlimit:10;" d="M -31.320312 34.929688 L -60.742188 768.09375 L 1370.65625 766.714844 L 1400.078125 33.554688 Z M -31.320312 34.929688 "/>
<path style="fill:none;stroke-width:2;stroke-linecap:butt;stroke-linejoin:miter;stroke:rgb(0%,0%,0%);stroke-opacity:1;stroke-miterlimit:10;" d="M -56.800781 47.894531 L -82.460938 785.777344 L 1373.089844 780.25 L 1398.75 42.367188 Z M -56.800781 47.894531 "/>
<path style="fill:none;stroke-width:2;stroke-linecap:butt;stroke-linejoin:miter;stroke:rgb(0%,0%,0%);stroke-opacity:1;stroke-miterlimit:10;" d="M -98.457031 53.425781 L -135.199219 799.222656 L 1361.609375 815.898438 L 1398.351562 70.101562 Z M -98.457031 53.425781 "/>
<path style="fill:none;stroke-width:2;stroke-linecap:butt;stroke-linejoin:miter;stroke:rgb(0%,0%,0%);stroke-opacity:1;stroke-miterlimit:10;" d="M -143.28125 66.101562 L -204.003906 818.433594 L 1338.167969 874.515625 L 1398.890625 122.179688 Z M -143.28125 66.101562 "/>
<path style="fill:none;stroke-width:2;stroke-linecap:butt;stroke-linejoin:miter;stroke:rgb(0%,0%,0%);stroke-opacity:1;stroke-miterlimit:10;" d="M -170.417969 78.328125 L -256.148438 831.671875 L 1314.566406 924.8125 L 1400.300781 171.472656 Z M -170.417969 78.328125 "/>
<path style="fill:none;stroke-width:2;stroke-linecap:butt;stroke-linejoin:miter;stroke:rgb(0%,0%,0%);stroke-opacity:1;stroke-miterlimit:10;" d="M -187.015625 88.753906 L -288.277344 841.445312 L 1297.902344 957.679688 L 1399.164062 204.988281 Z M -187.015625 88.753906 "/>
<path style="fill:none;stroke-width:2;stroke-linecap:butt;stroke-linejoin:miter;stroke:rgb(0%,0%,0%);stroke-opacity:1;stroke-miterlimit:10;" d="M -198.894531 96.875 L -298.894531 852.074219 L 1299.683594 967.273438 L 1399.683594 212.074219 Z M -198.894531 96.875 "/>
<path style="fill:none;stroke-width:2;stroke-linecap:butt;stroke-linejoin:miter;stroke:rgb(0%,0%,0%);stroke-opacity:1;stroke-miterlimit:10;" d="M -198.242188 97.613281 L -279.042969 856.8125 L 1318.113281 944.992188 L 1398.914062 185.792969 Z M -198.242188 97.613281 "/>
<path style="fill:none;stroke-width:2;stroke-linecap:butt;stroke-linejoin:miter;stroke:rgb(0%,0%,0%);stroke-opacity:1;stroke-miterlimit:10;" d="M -188.949219 84.730469 L -243.964844 849.382812 L 1345.046875 903.25 L 1400.066406 138.597656 Z M -188.949219 84.730469 "/>
<path style="fill:none;stroke-width:2;stroke-linecap:butt;stroke-linejoin:miter;stroke:rgb(0%,0%,0%);stroke-opacity:1;stroke-miterlimit:10;" d="M -182.917969 68.054688 L -225.832031 836.53125 L 1359.335938 878.917969 L 1402.25 110.441406 Z M -182.917969 68.054688 "/>
<path style="fill:none;stroke-width:2;stroke-linecap:butt;stroke-linejoin:miter;stroke:rgb(0%,0%,0%);stroke-opacity:1;stroke-miterlimit:10;" d="M -169.902344 45.074219 L -232.339844 810.914062 L 1344.125 885.378906 L 1406.5625 119.539062 Z M -169.902344 45.074219 "/>
<path style="fill:none;stroke-width:2;stroke-linecap:butt;stroke-linejoin:miter;stroke:rgb(0%,0%,0%);stroke-opacity:1;stroke-miterlimit:10;" d="M -149.851562 9.097656 L -262.792969 766.746094 L 1301.648438 921.515625 L 1414.589844 163.871094 Z M -149.851562 9.097656 "/>
<path style="fill:none;stroke-width:2;stroke-linecap:butt;stroke-linejoin:miter;stroke:rgb(0%,0%,0%);stroke-opacity:1;stroke-miterlimit:10;" d="M -138.183594 -28.226562 L -320.324219 715.125 L 1232.28125 979.429688 L 1414.421875 236.078125 Z M -138.183594 -28.226562 "/>
<path style="fill:none;stroke-width:2;stroke-linecap:butt;stroke-linejoin:miter;stroke:rgb(0%,0%,0%);stroke-opacity:1;stroke-miterlimit:10;" d="M -136.371094 -63.078125 L -384.621094 665.425781 L 1157.980469 1033.890625 L 1406.230469 305.382812 Z M -136.371094 -63.078125 "/>
<path style="fill:none;stroke-width:2;stroke-linecap:butt;stroke-linejoin:miter;stroke:rgb(0%,0%,0%);stroke-opacity:1;stroke-miterlimit:10;" d="M -140.40625 -89.863281 L -429.488281 630.90625 L 1109.527344 1068.078125 L 1398.605469 347.308594 Z M -140.40625 -89.863281 "/>
<path style="fill:none;stroke-width:2;stroke-linecap:butt;stroke-linejoin:miter;stroke:rgb(0%,0%,0%);stroke-opacity:1;stroke-miterlimit:10;" d="M -159.84375 -100.695312 L -453.722656 626.265625 L 1106.75 1077.21875 L 1400.628906 350.261719 Z M -159.84375 -100.695312 "/>
<path style="fill:none;stroke-width:2;stroke-linecap:butt;stroke-linejoin:miter;stroke:rgb(0%,0%,0%);stroke-opacity:1;stroke-miterlimit:10;" d="M -185.964844 -96.273438 L -447.5 650.191406 L 1146.621094 1058.40625 L 1408.15625 311.941406 Z M -185.964844 -96.273438 "/>
<path style="fill:none;stroke-width:2;stroke-linecap:butt;stroke-linejoin:miter;stroke:rgb(0%,0%,0%);stroke-opacity:1;stroke-miterlimit:10;" d="M -199.546875 -83.695312 L -402.019531 683.992188 L 1218.480469 1007.816406 L 1420.953125 240.128906 Z M -199.546875 -83.695312 "/>
<path style="fill:none;stroke-width:2;stroke-linecap:butt;stroke-linejoin:miter;stroke:rgb(0%,0%,0%);stroke-opacity:1;stroke-miterlimit:10;" d="M -198.535156 -67.507812 L -340.1875 712.753906 L 1284.855469 946.492188 L 1426.507812 166.230469 Z M -198.535156 -67.507812 "/>
<path style="fill:none;stroke-width:2;stroke-linecap:butt;stroke-linejoin:miter;stroke:rgb(0%,0%,0%);stroke-opacity:1;stroke-miterlimit:10;" d="M -181.558594 -58.257812 L -282.296875 724.214844 L 1326.726562 894.972656 L 1427.464844 112.5 Z M -181.558594 -58.257812 "/>
<path style="fill:none;stroke-width:2;stroke-linecap:butt;stroke-linejoin:miter;stroke:rgb(0%,0%,0%);stroke-opacity:1;stroke-miterlimit:10;" d="M -156.738281 -63.230469 L -249.261719 715.863281 L 1338.988281 873.441406 L 1431.515625 94.351562 Z M -156.738281 -63.230469 "/>
<path style="fill:none;stroke-width:2;stroke-linecap:butt;stroke-linejoin:miter;stroke:rgb(0%,0%,0%);stroke-opacity:1;stroke-miterlimit:10;" d="M -136.792969 -84.964844 L -253.570312 687.625 L 1320.652344 884.230469 L 1437.429688 111.640625 Z M -136.792969 -84.964844 "/>
<path style="fill:none;stroke-width:2;stroke-linecap:butt;stroke-linejoin:miter;stroke:rgb(0%,0%,0%);stroke-opacity:1;stroke-miterlimit:10;" d="M -122.734375 -127.945312 L -289.480469 638.160156 L 1278.761719 919.570312 L 1445.503906 153.464844 Z M -122.734375 -127.945312 "/>
<path style="fill:none;stroke-width:2;stroke-linecap:butt;stroke-linejoin:miter;stroke:rgb(0%,0%,0%);stroke-opacity:1;stroke-miterlimit:10;" d="M -108.617188 -182.660156 L -337.429688 571.660156 L 1219.179688 959.457031 L 1447.992188 205.136719 Z M -108.617188 -182.660156 "/>
<path style="fill:none;stroke-width:2;stroke-linecap:butt;stroke-linejoin:miter;stroke:rgb(0%,0%,0%);stroke-opacity:1;stroke-miterlimit:10;" d="M -94.273438 -228.304688 L -376.667969 512.136719 L 1163.097656 989.949219 L 1445.496094 249.507812 Z M -94.273438 -228.304688 "/>
<path style="fill:none;stroke-width:2;stroke-linecap:butt;stroke-linejoin:miter;stroke:rgb(0%,0%,0%);stroke-opacity:1;stroke-miterlimit:10;" d="M -82.808594 -248.363281 L -388.148438 483.699219 L 1138.46875 999.71875 L 1443.808594 267.65625 Z M -82.808594 -248.363281 "/>
<path style="fill:none;stroke-width:2;stroke-linecap:butt;stroke-linejoin:miter;stroke:rgb(0%,0%,0%);stroke-opacity:1;stroke-miterlimit:10;" d="M -78.527344 -238 L -362.003906 499.339844 L 1164.613281 981.851562 L 1448.089844 244.511719 Z M -78.527344 -238 "/>
<path style="fill:none;stroke-width:2;stroke-linecap:butt;stroke-linejoin:miter;stroke:rgb(0%,0%,0%);stroke-opacity:1;stroke-miterlimit:10;" d="M -91.515625 -203.320312 L -312.0625 553.058594 L 1234.71875 937.058594 L 1455.265625 180.679688 Z M -91.515625 -203.320312 "/>
<path style="fill:none;stroke-width:2;stroke-linecap:butt;stroke-linejoin:miter;stroke:rgb(0%,0%,0%);stroke-opacity:1;stroke-miterlimit:10;" d="M -109.339844 -157.851562 L -242.8125 618.589844 L 1320.578125 869.4375 L 1454.050781 92.996094 Z M -109.339844 -157.851562 "/>
<path style="fill:none;stroke-width:2;stroke-linecap:butt;stroke-linejoin:miter;stroke:rgb(0%,0%,0%);stroke-opacity:1;stroke-miterlimit:10;" d="M -123.960938 -117.257812 L -181.46875 670.21875 L 1386.15625 802.441406 L 1443.664062 14.96875 Z M -123.960938 -117.257812 "/>
<path style="fill:none;stroke-width:2;stroke-linecap:butt;stroke-linejoin:miter;stroke:rgb(0%,0%,0%);stroke-opacity:1;stroke-miterlimit:10;" d="M -132.75 -98.707031 L -155.035156 692.753906 L 1413.203125 769.253906 L 1435.488281 -22.210938 Z M -132.75 -98.707031 "/>
<path style="fill:none;stroke-width:2;stroke-linecap:butt;stroke-linejoin:miter;stroke:rgb(0%,0%,0%);stroke-opacity:1;stroke-miterlimit:10;" d="M -128.617188 -112.910156 L -169.257812 676.863281 L 1399.730469 784.554688 L 1440.371094 -5.222656 Z M -128.617188 -112.910156 "/>
<path style="fill:none;stroke-width:2;stroke-linecap:butt;stroke-linejoin:miter;stroke:rgb(0%,0%,0%);stroke-opacity:1;stroke-miterlimit:10;" d="M -113.605469 -152.570312 L -224.316406 628.511719 L 1344.804688 845.691406 L 1455.511719 64.609375 Z M -113.605469 -152.570312 "/>
<path style="fill:none;stroke-width:2;stroke-linecap:butt;stroke-linejoin:miter;stroke:rgb(0%,0%,0%);stroke-opacity:1;stroke-miterlimit:10;" d="M -84.34375 -202.292969 L -296.109375 552.496094 L 1244.730469 927.625 L 1456.496094 172.835938 Z M -84.34375 -202.292969 "/>
<path style="fill:none;stroke-width:2;stroke-linecap:butt;stroke-linejoin:miter;stroke:rgb(0%,0%,0%);stroke-opacity:1;stroke-miterlimit:10;" d="M -48.21875 -234.964844 L -358.070312 481.292969 L 1129.496094 1000.210938 L 1439.351562 283.953125 Z M -48.21875 -234.964844 "/>
<path style="fill:none;stroke-width:2;stroke-linecap:butt;stroke-linejoin:miter;stroke:rgb(0%,0%,0%);stroke-opacity:1;stroke-miterlimit:10;" d="M -28.851562 -237.171875 L -392.578125 450.03125 L 1053.054688 1043.65625 L 1416.78125 356.449219 Z M -28.851562 -237.171875 "/>
<path style="fill:none;stroke-width:2;stroke-linecap:butt;stroke-linejoin:miter;stroke:rgb(0%,0%,0%);stroke-opacity:1;stroke-miterlimit:10;" d="M -39.433594 -208.832031 L -389.320312 481.199219 L 1063.832031 1045.945312 L 1413.71875 355.914062 Z M -39.433594 -208.832031 "/>
<path style="fill:none;stroke-width:2;stroke-linecap:butt;stroke-linejoin:miter;stroke:rgb(0%,0%,0%);stroke-opacity:1;stroke-miterlimit:10;" d="M -73.167969 -155.589844 L -340.507812 567.449219 L 1163.625 1002.214844 L 1430.96875 279.179688 Z M -73.167969 -155.589844 "/>
<path style="fill:none;stroke-width:2;stroke-linecap:butt;stroke-linejoin:miter;stroke:rgb(0%,0%,0%);stroke-opacity:1;stroke-miterlimit:10;" d="M -110.191406 -84.5625 L -255.113281 672.441406 L 1293.492188 915.011719 L 1438.417969 158.007812 Z M -110.191406 -84.5625 "/>
<path style="fill:none;stroke-width:2;stroke-linecap:butt;stroke-linejoin:miter;stroke:rgb(0%,0%,0%);stroke-opacity:1;stroke-miterlimit:10;" d="M -125.246094 -14.972656 L -161.050781 754.0625 L 1386.019531 821.871094 L 1421.824219 52.832031 Z M -125.246094 -14.972656 "/>
<path style="fill:none;stroke-width:2;stroke-linecap:butt;stroke-linejoin:miter;stroke:rgb(0%,0%,0%);stroke-opacity:1;stroke-miterlimit:10;" d="M -107.601562 32.332031 L -93.542969 792.9375 L 1422.464844 769.339844 L 1408.40625 8.730469 Z M -107.601562 32.332031 "/>
<path style="fill:none;stroke-width:2;stroke-linecap:butt;stroke-linejoin:miter;stroke:rgb(0%,0%,0%);stroke-opacity:1;stroke-miterlimit:10;" d="M -70.585938 48.789062 L -71.363281 794.503906 L 1412.273438 777.878906 L 1413.050781 32.164062 Z M -70.585938 48.789062 "/>
<path style="fill:none;stroke-width:2;stroke-linecap:butt;stroke-linejoin:miter;stroke:rgb(0%,0%,0%);stroke-opacity:1;stroke-miterlimit:10;" d="M -29.796875 37.945312 L -86.3125 767.238281 L 1368.484375 825.042969 L 1425 95.753906 Z M -29.796875 37.945312 "/>
<path style="fill:none;stroke-width:2;stroke-linecap:butt;stroke-linejoin:miter;stroke:rgb(0%,0%,0%);stroke-opacity:1;stroke-miterlimit:10;" d="M -2.15625 15.421875 L -119.722656 730.042969 L 1314.644531 877.578125 L 1432.210938 162.957031 Z M -2.15625 15.421875 "/>
<path style="fill:none;stroke-width:2;stroke-linecap:butt;stroke-linejoin:miter;stroke:rgb(0%,0%,0%);stroke-opacity:1;stroke-miterlimit:10;" d="M -2.367188 -3.417969 L -156.324219 706.625 L 1280.269531 913.601562 L 1434.230469 203.558594 Z M -2.367188 -3.417969 "/>
<path style="fill:none;stroke-width:2;stroke-linecap:butt;stroke-linejoin:miter;stroke:rgb(0%,0%,0%);stroke-opacity:1;stroke-miterlimit:10;" d="M -28.070312 -8.664062 L -179.445312 709.796875 L 1284.972656 921.535156 L 1436.347656 203.074219 Z M -28.070312 -8.664062 "/>
<path style="fill:none;stroke-width:2;stroke-linecap:butt;stroke-linejoin:miter;stroke:rgb(0%,0%,0%);stroke-opacity:1;stroke-miterlimit:10;" d="M -62.433594 3.773438 L -178.5625 737.710938 L 1318.898438 901.496094 L 1435.027344 167.558594 Z M -62.433594 3.773438 "/>
<path style="fill:none;stroke-width:2;stroke-linecap:butt;stroke-linejoin:miter;stroke:rgb(0%,0%,0%);stroke-opacity:1;stroke-miterlimit:10;" d="M -75.703125 36.691406 L -145.054688 777.730469 L 1359.359375 866.386719 L 1428.710938 125.347656 Z M -75.703125 36.691406 "/>
<path style="fill:none;stroke-width:2;stroke-linecap:butt;stroke-linejoin:miter;stroke:rgb(0%,0%,0%);stroke-opacity:1;stroke-miterlimit:10;" d="M -44.273438 72.886719 L -77.851562 804.601562 L 1392.34375 822.648438 L 1425.921875 90.933594 Z M -44.273438 72.886719 "/>
<path style="fill:none;stroke-width:2;stroke-linecap:butt;stroke-linejoin:miter;stroke:rgb(0%,0%,0%);stroke-opacity:1;stroke-miterlimit:10;" d="M 13.46875 91.3125 L -5.214844 805.863281 L 1403.476562 783.722656 L 1422.160156 69.171875 Z M 13.46875 91.3125 "/>
<path style="fill:none;stroke-width:2;stroke-linecap:butt;stroke-linejoin:miter;stroke:rgb(0%,0%,0%);stroke-opacity:1;stroke-miterlimit:10;" d="M 69.566406 92.898438 L 49.394531 792.726562 L 1403.878906 759.621094 L 1424.050781 59.796875 Z M 69.566406 92.898438 "/>
<path style="fill:none;stroke-width:2;stroke-linecap:butt;stroke-linejoin:miter;stroke:rgb(0%,0%,0%);stroke-opacity:1;stroke-miterlimit:10;" d="M 105.722656 77.695312 L 77.910156 771.429688 L 1399.113281 749.453125 L 1426.925781 55.71875 Z M 105.722656 77.695312 "/>
<path style="fill:none;stroke-width:2;stroke-linecap:butt;stroke-linejoin:miter;stroke:rgb(0%,0%,0%);stroke-opacity:1;stroke-miterlimit:10;" d="M 116.410156 50.605469 L 85.675781 746.785156 L 1399.824219 741.320312 L 1430.5625 45.140625 Z M 116.410156 50.605469 "/>
<path style="fill:none;stroke-width:2;stroke-linecap:butt;stroke-linejoin:miter;stroke:rgb(0%,0%,0%);stroke-opacity:1;stroke-miterlimit:10;" d="M 101.847656 11.648438 L 70.441406 720.160156 L 1406.269531 736.5 L 1437.675781 27.988281 Z M 101.847656 11.648438 "/>
<path style="fill:none;stroke-width:2;stroke-linecap:butt;stroke-linejoin:miter;stroke:rgb(0%,0%,0%);stroke-opacity:1;stroke-miterlimit:10;" d="M 81.320312 -31.023438 L 37.039062 688.214844 L 1402.550781 746.582031 L 1446.835938 27.34375 Z M 81.320312 -31.023438 "/>
<path style="fill:none;stroke-width:2;stroke-linecap:butt;stroke-linejoin:miter;stroke:rgb(0%,0%,0%);stroke-opacity:1;stroke-miterlimit:10;" d="M 78.988281 -77.824219 L -12.148438 642.175781 L 1369.117188 786.648438 L 1460.253906 66.648438 Z M 78.988281 -77.824219 "/>
<path style="fill:none;stroke-width:2;stroke-linecap:butt;stroke-linejoin:miter;stroke:rgb(0%,0%,0%);stroke-opacity:1;stroke-miterlimit:10;" d="M 106.023438 -113.722656 L -59.085938 588.933594 L 1301.332031 847.617188 L 1466.441406 144.957031 Z M 106.023438 -113.722656 "/>
<path style="fill:none;stroke-width:2;stroke-linecap:butt;stroke-linejoin:miter;stroke:rgb(0%,0%,0%);stroke-opacity:1;stroke-miterlimit:10;" d="M 141.203125 -126.890625 L -76.296875 554.859375 L 1247.703125 889.527344 L 1465.203125 207.777344 Z M 141.203125 -126.890625 "/>
<path style="fill:none;stroke-width:2;stroke-linecap:butt;stroke-linejoin:miter;stroke:rgb(0%,0%,0%);stroke-opacity:1;stroke-miterlimit:10;" d="M 144.996094 -117 L -62.21875 566.210938 L 1260.492188 883.875 L 1467.707031 200.664062 Z M 144.996094 -117 "/>
<path style="fill:none;stroke-width:2;stroke-linecap:butt;stroke-linejoin:miter;stroke:rgb(0%,0%,0%);stroke-opacity:1;stroke-miterlimit:10;" d="M 113.746094 -95.265625 L -20.59375 611.90625 L 1334.542969 822.554688 L 1468.882812 115.386719 Z M 113.746094 -95.265625 "/>
<path style="fill:none;stroke-width:2;stroke-linecap:butt;stroke-linejoin:miter;stroke:rgb(0%,0%,0%);stroke-opacity:1;stroke-miterlimit:10;" d="M 83.898438 -75.746094 L 32.363281 651.832031 L 1408.023438 742.105469 L 1459.5625 14.527344 Z M 83.898438 -75.746094 "/>
<path style="fill:none;stroke-width:2;stroke-linecap:butt;stroke-linejoin:miter;stroke:rgb(0%,0%,0%);stroke-opacity:1;stroke-miterlimit:10;" d="M 95.441406 -80.335938 L 66.667969 648.75 L 1428.773438 707.972656 L 1457.542969 -21.113281 Z M 95.441406 -80.335938 "/>
<path style="fill:none;stroke-width:2;stroke-linecap:butt;stroke-linejoin:miter;stroke:rgb(0%,0%,0%);stroke-opacity:1;stroke-miterlimit:10;" d="M 137.21875 -126.558594 L 49.285156 591.1875 L 1388.074219 750.1875 L 1476.007812 32.441406 Z M 137.21875 -126.558594 "/>
<path style="fill:none;stroke-width:2;stroke-linecap:butt;stroke-linejoin:miter;stroke:rgb(0%,0%,0%);stroke-opacity:1;stroke-miterlimit:10;" d="M 196.957031 -188.597656 L 1.335938 500.164062 L 1294.558594 832.0625 L 1490.179688 143.304688 Z M 196.957031 -188.597656 "/>
<path style="fill:none;stroke-width:2;stroke-linecap:butt;stroke-linejoin:miter;stroke:rgb(0%,0%,0%);stroke-opacity:1;stroke-miterlimit:10;" d="M 244.550781 -231.457031 L -37.699219 422.957031 L 1202.996094 894.605469 L 1485.25 240.191406 Z M 244.550781 -231.457031 "/>
<path style="fill:none;stroke-width:2;stroke-linecap:butt;stroke-linejoin:miter;stroke:rgb(0%,0%,0%);stroke-opacity:1;stroke-miterlimit:10;" d="M 224.871094 -251.636719 L -75.375 404.921875 L 1187.578125 912.464844 L 1487.824219 255.90625 Z M 224.871094 -251.636719 "/>
<path style="fill:none;stroke-width:2;stroke-linecap:butt;stroke-linejoin:miter;stroke:rgb(0%,0%,0%);stroke-opacity:1;stroke-miterlimit:10;" d="M 135.867188 -225.8125 L -98.152344 472.507812 L 1260.269531 877.90625 L 1494.289062 179.589844 Z M 135.867188 -225.8125 "/>
<path style="fill:none;stroke-width:2;stroke-linecap:butt;stroke-linejoin:miter;stroke:rgb(0%,0%,0%);stroke-opacity:1;stroke-miterlimit:10;" d="M 26.71875 -149.09375 L -81.703125 598.394531 L 1377.472656 804.714844 L 1485.890625 57.226562 Z M 26.71875 -149.09375 "/>
<path style="fill:none;stroke-width:2;stroke-linecap:butt;stroke-linejoin:miter;stroke:rgb(0%,0%,0%);stroke-opacity:1;stroke-miterlimit:10;" d="M -40.914062 -57.699219 L -34.695312 712.066406 L 1467.851562 732.800781 L 1461.632812 -36.964844 Z M -40.914062 -57.699219 "/>
<path style="fill:none;stroke-width:2;stroke-linecap:butt;stroke-linejoin:miter;stroke:rgb(0%,0%,0%);stroke-opacity:1;stroke-miterlimit:10;" d="M -34.515625 -8.761719 L 0.625 753.410156 L 1484.703125 713.148438 L 1449.5625 -49.019531 Z M -34.515625 -8.761719 "/>
<path style="fill:none;stroke-width:2;stroke-linecap:butt;stroke-linejoin:miter;stroke:rgb(0%,0%,0%);stroke-opacity:1;stroke-miterlimit:10;" d="M 22.375 -14.570312 L 6.097656 727.132812 L 1444.546875 750.554688 L 1460.824219 8.855469 Z M 22.375 -14.570312 "/>
<path style="fill:none;stroke-width:2;stroke-linecap:butt;stroke-linejoin:miter;stroke:rgb(0%,0%,0%);stroke-opacity:1;stroke-miterlimit:10;" d="M 86.972656 -50.105469 L 6.460938 672.195312 L 1392.785156 790.789062 L 1473.296875 68.488281 Z M 86.972656 -50.105469 "/>
<path style="fill:none;stroke-width:2;stroke-linecap:butt;stroke-linejoin:miter;stroke:rgb(0%,0%,0%);stroke-opacity:1;stroke-miterlimit:10;" d="M 123.484375 -107.519531 L 16.394531 610.960938 L 1378.757812 790.539062 L 1485.847656 72.058594 Z M 123.484375 -107.519531 "/>
<path style="fill:none;stroke-width:2;stroke-linecap:butt;stroke-linejoin:miter;stroke:rgb(0%,0%,0%);stroke-opacity:1;stroke-miterlimit:10;" d="M 126.371094 -174.46875 L 10.023438 553.84375 L 1384.042969 779.488281 L 1500.390625 51.179688 Z M 126.371094 -174.46875 "/>
<path style="fill:none;stroke-width:2;stroke-linecap:butt;stroke-linejoin:miter;stroke:rgb(0%,0%,0%);stroke-opacity:1;stroke-miterlimit:10;" d="M 144.296875 -237.574219 L -5.265625 489.191406 L 1365.589844 789.816406 L 1515.152344 63.054688 Z M 144.296875 -237.574219 "/>
<path style="fill:none;stroke-width:2;stroke-linecap:butt;stroke-linejoin:miter;stroke:rgb(0%,0%,0%);stroke-opacity:1;stroke-miterlimit:10;" d="M 197.394531 -268.535156 L -15.992188 431.320312 L 1306.453125 830.574219 L 1519.839844 130.71875 Z M 197.394531 -268.535156 "/>
<path style="fill:none;stroke-width:2;stroke-linecap:butt;stroke-linejoin:miter;stroke:rgb(0%,0%,0%);stroke-opacity:1;stroke-miterlimit:10;" d="M 236.671875 -248.285156 L -20.953125 424.0625 L 1251.105469 872.792969 L 1508.726562 200.445312 Z M 236.671875 -248.285156 "/>
<path style="fill:none;stroke-width:2;stroke-linecap:butt;stroke-linejoin:miter;stroke:rgb(0%,0%,0%);stroke-opacity:1;stroke-miterlimit:10;" d="M 222.421875 -187.4375 L -2.058594 490.519531 L 1275.269531 864.242188 L 1499.753906 186.285156 Z M 222.421875 -187.4375 "/>
<path style="fill:none;stroke-width:2;stroke-linecap:butt;stroke-linejoin:miter;stroke:rgb(0%,0%,0%);stroke-opacity:1;stroke-miterlimit:10;" d="M 152.015625 -86.808594 L 50.359375 624.019531 L 1386.070312 783 L 1487.726562 72.171875 Z M 152.015625 -86.808594 "/>
<path style="fill:none;stroke-width:2;stroke-linecap:butt;stroke-linejoin:miter;stroke:rgb(0%,0%,0%);stroke-opacity:1;stroke-miterlimit:10;" d="M 68.421875 28.214844 L 138.476562 761.445312 L 1509.804688 642.441406 L 1439.75 -90.792969 Z M 68.421875 28.214844 "/>
<path style="fill:none;stroke-width:2;stroke-linecap:butt;stroke-linejoin:miter;stroke:rgb(0%,0%,0%);stroke-opacity:1;stroke-miterlimit:10;" d="M 24.605469 97.523438 L 203.03125 828.527344 L 1566.875 536.476562 L 1388.449219 -194.527344 Z M 24.605469 97.523438 "/>
<path style="fill:none;stroke-width:2;stroke-linecap:butt;stroke-linejoin:miter;stroke:rgb(0%,0%,0%);stroke-opacity:1;stroke-miterlimit:10;" d="M 58.3125 73.96875 L 203.878906 799.449219 L 1546.484375 554.578125 L 1400.921875 -170.898438 Z M 58.3125 73.96875 "/>
<path style="fill:none;stroke-width:2;stroke-linecap:butt;stroke-linejoin:miter;stroke:rgb(0%,0%,0%);stroke-opacity:1;stroke-miterlimit:10;" d="M 153.246094 -24.863281 L 165.59375 691.28125 L 1471.660156 662.46875 L 1459.3125 -53.671875 Z M 153.246094 -24.863281 "/>
<path style="fill:none;stroke-width:2;stroke-linecap:butt;stroke-linejoin:miter;stroke:rgb(0%,0%,0%);stroke-opacity:1;stroke-miterlimit:10;" d="M 253.542969 -126.957031 L 123.535156 561.109375 L 1369.742188 776.019531 L 1499.753906 87.953125 Z M 253.542969 -126.957031 "/>
<path style="fill:none;stroke-width:2;stroke-linecap:butt;stroke-linejoin:miter;stroke:rgb(0%,0%,0%);stroke-opacity:1;stroke-miterlimit:10;" d="M 307.585938 -188.476562 L 93.695312 475.039062 L 1296.039062 836.546875 L 1509.929688 173.03125 Z M 307.585938 -188.476562 "/>
<path style="fill:none;stroke-width:2;stroke-linecap:butt;stroke-linejoin:miter;stroke:rgb(0%,0%,0%);stroke-opacity:1;stroke-miterlimit:10;" d="M 290.574219 -211.4375 L 79.914062 460.410156 L 1305.078125 830.902344 L 1515.734375 159.050781 Z M 290.574219 -211.4375 "/>
<path style="fill:none;stroke-width:2;stroke-linecap:butt;stroke-linejoin:miter;stroke:rgb(0%,0%,0%);stroke-opacity:1;stroke-miterlimit:10;" d="M 231.847656 -190.867188 L 88.148438 509.46875 L 1368.148438 779.722656 L 1511.847656 79.386719 Z M 231.847656 -190.867188 "/>
<path style="fill:none;stroke-width:2;stroke-linecap:butt;stroke-linejoin:miter;stroke:rgb(0%,0%,0%);stroke-opacity:1;stroke-miterlimit:10;" d="M 190.640625 -134.644531 L 123.664062 581.550781 L 1426.667969 716.859375 L 1493.644531 0.664062 Z M 190.640625 -134.644531 "/>
<path style="fill:none;stroke-width:2;stroke-linecap:butt;stroke-linejoin:miter;stroke:rgb(0%,0%,0%);stroke-opacity:1;stroke-miterlimit:10;" d="M 186.324219 -69.640625 L 163.347656 643.464844 L 1452.878906 684.316406 L 1475.859375 -28.789062 Z M 186.324219 -69.640625 "/>
<path style="fill:none;stroke-width:2;stroke-linecap:butt;stroke-linejoin:miter;stroke:rgb(0%,0%,0%);stroke-opacity:1;stroke-miterlimit:10;" d="M 196.746094 -19.15625 L 185.964844 684.671875 L 1457.75 680.566406 L 1468.53125 -23.261719 Z M 196.746094 -19.15625 "/>
<path style="fill:none;stroke-width:2;stroke-linecap:butt;stroke-linejoin:miter;stroke:rgb(0%,0%,0%);stroke-opacity:1;stroke-miterlimit:10;" d="M 196.4375 13.824219 L 196.4375 713.714844 L 1464.066406 677.96875 L 1464.066406 -21.921875 Z M 196.4375 13.824219 "/>
<path style="fill:none;stroke-width:2;stroke-linecap:butt;stroke-linejoin:miter;stroke:rgb(0%,0%,0%);stroke-opacity:1;stroke-miterlimit:10;" d="M 167.132812 29.128906 L 191.960938 736.714844 L 1484.375 666.367188 L 1459.546875 -41.21875 Z M 167.132812 29.128906 "/>
<path style="fill:none;stroke-width:2;stroke-linecap:butt;stroke-linejoin:miter;stroke:rgb(0%,0%,0%);stroke-opacity:1;stroke-miterlimit:10;" d="M 123.738281 15.191406 L 170.34375 738.296875 L 1502.8125 652.6875 L 1456.210938 -70.417969 Z M 123.738281 15.191406 "/>
<path style="fill:none;stroke-width:2;stroke-linecap:butt;stroke-linejoin:miter;stroke:rgb(0%,0%,0%);stroke-opacity:1;stroke-miterlimit:10;" d="M 109.90625 -33.226562 L 131.582031 699.933594 L 1490.035156 673.78125 L 1468.355469 -59.378906 Z M 109.90625 -33.226562 "/>
<path style="fill:none;stroke-width:2;stroke-linecap:butt;stroke-linejoin:miter;stroke:rgb(0%,0%,0%);stroke-opacity:1;stroke-miterlimit:10;" d="M 143.0625 -104.152344 L 79.417969 621.214844 L 1430.300781 741.171875 L 1493.945312 15.804688 Z M 143.0625 -104.152344 "/>
</g>
</svg>
